<?xml version="1.0" encoding="utf-8"?>
<!-- Generator: Adobe Illustrator 22.0.1, SVG Export Plug-In . SVG Version: 6.00 Build 0)  -->
<svg version="1.1" id="Layer_1" xmlns="http://www.w3.org/2000/svg" xmlns:xlink="http://www.w3.org/1999/xlink" x="0px" y="0px"
	 width="80px" height="80px" viewBox="0 0 80 80" style="enable-background:new 0 0 80 80;" xml:space="preserve">
<style type="text/css">
	.st0{fill:#6E6E6E;}
	.st1{fill:#5A5A5A;}
	.st2{fill:#00DB97;}
	.st3{fill:#00B57D;}
	.st4{fill:#ECECF1;}
	.st5{fill:#D3D3D8;}
</style>
<path class="st0" d="M9.9,20.3v-6.6l6.6-6.6l3.3,3.3L9.9,20.3z"/>
<path class="st1" d="M66.3,70.1h-6.6l9.9-9.9l3.3,3.3L66.3,70.1z"/>
<path class="st2" d="M33.1,36.9L3.3,20.3l6.6-6.6L53,17L33.1,36.9z"/>
<path class="st3" d="M43.1,46.9l16.6,29.8l6.6-6.6L63,27L43.1,46.9z"/>
<path class="st2" d="M6.6,63.4L0,56.8l13.3-13.3l9.9,3.3L6.6,63.4z"/>
<path class="st3" d="M16.6,73.4l6.6,6.6l13.3-13.3l-3.3-9.9L16.6,73.4z"/>
<path class="st4" d="M70.6,22.6L22.8,70.5l-5-5l2.1-5.4l-5.4,2.1l-5-5L57.4,9.4C63.4,3.3,71.4,0,80,0C80,8.6,76.7,16.6,70.6,22.6z"
	/>
<path class="st5" d="M70.6,22.6L22.8,70.5l-5-5l2.1-5.4L80,0C80,8.6,76.7,16.6,70.6,22.6z"/>
<path class="st0" d="M14.5,62.2l17-17l3.3,3.3l-17,17L14.5,62.2z"/>
<path class="st0" d="M51.4,25.3l12.7-12.7l3.3,3.3L54.7,28.6L51.4,25.3z"/>
<g>
	<path class="st1" d="M53,27l12.7-12.7l1.7,1.7L54.7,28.6L53,27z"/>
	<path class="st1" d="M17.8,65.5l-1.7-1.7l17-17l1.7,1.7L17.8,65.5z"/>
</g>
</svg>
