<?xml version="1.0" encoding="utf-8"?>
<!-- Generator: Adobe Illustrator 22.0.1, SVG Export Plug-In . SVG Version: 6.00 Build 0)  -->
<svg version="1.1" id="Layer_1" xmlns="http://www.w3.org/2000/svg" xmlns:xlink="http://www.w3.org/1999/xlink" x="0px" y="0px"
	 width="174.9px" height="47.5px" viewBox="0 0 174.9 47.5" style="enable-background:new 0 0 174.9 47.5;" xml:space="preserve">
<style type="text/css">
	.st0{display:none;fill:#231F20;stroke:#FFFFFF;stroke-miterlimit:10;}
	.st1{fill:#35C993;}
	.st2{fill:#FFFFFF;}
	.st3{fill:url(#SVGID_1_);}
	.st4{fill:url(#SVGID_2_);}
</style>
<rect x="-15.9" y="-16.7" class="st0" width="214.5" height="79.3"/>
<path class="st2" d="M22.3,35.1h-6v-1.3c-1.1,0.7-2.2,1.2-3.3,1.5c-1.2,0.3-2.4,0.4-3.6,0.4c-1.2,0-2.2-0.2-3.1-0.5
	c-0.9-0.3-1.8-0.8-2.4-1.5c-0.7-0.6-1.2-1.4-1.6-2.3s-0.6-1.9-0.6-2.9c0-1.4,0.3-2.5,0.9-3.5c0.6-1,1.4-1.8,2.4-2.5
	c1-0.7,2.2-1.2,3.6-1.5s2.8-0.5,4.4-0.5h3.4c0-1.4-0.5-2.5-1.4-3.4c-0.9-0.8-2.2-1.2-3.9-1.2c-0.8,0-1.7,0.2-2.6,0.5
	c-0.9,0.3-1.8,0.9-2.7,1.7l-3.5-3.6c1.3-1.2,2.7-2.2,4.4-2.8c1.7-0.7,3.4-1,5.2-1c1.7,0,3.1,0.3,4.4,0.8c1.3,0.5,2.3,1.2,3.1,2
	c1,1.1,1.8,2.2,2.2,3.5c0.4,1.3,0.6,3,0.6,5V35.1z M16.4,29.1v-4.4h-2.7c-0.8,0-1.6,0.1-2.3,0.2c-0.7,0.1-1.4,0.3-1.9,0.6
	c-0.5,0.3-1,0.6-1.3,1c-0.3,0.4-0.5,0.9-0.5,1.5c0,0.8,0.3,1.5,1,2c0.6,0.5,1.5,0.8,2.5,0.8c0.9,0,1.8-0.1,2.6-0.4
	C14.6,30,15.5,29.6,16.4,29.1z"/>
<path class="st2" d="M37,35c-0.5,0.2-1,0.4-1.6,0.5s-1.2,0.2-1.8,0.2c-0.9,0-1.7-0.1-2.5-0.4c-0.8-0.2-1.5-0.6-2.1-1.1
	c-0.6-0.5-1.1-1.2-1.5-2.1c-0.4-0.8-0.5-1.9-0.5-3V0.7H33v27.4c0,1,0.2,1.7,0.6,2.1c0.4,0.4,0.9,0.6,1.4,0.6c0.7,0,1.4-0.2,2-0.6V35
	z"/>
<path class="st2" d="M61.7,35.1h-6V20.8c0-0.9-0.1-1.6-0.4-2.3c-0.3-0.6-0.6-1.2-1.1-1.6c-0.4-0.4-1-0.7-1.5-1
	c-0.6-0.2-1.2-0.3-1.8-0.3c-0.9,0-1.8,0.2-2.7,0.5c-0.9,0.3-1.7,0.8-2.4,1.5v17.4h-6v-24h6l0,1.8c0.4-0.4,0.8-0.7,1.3-1
	c0.5-0.3,1.1-0.6,1.6-0.8c0.6-0.2,1.1-0.4,1.7-0.5c0.6-0.1,1.2-0.2,1.7-0.2c1.2,0,2.4,0.2,3.5,0.6c1.1,0.4,2.1,1,3,1.8
	c0.9,0.8,1.6,1.8,2.1,3.1c0.5,1.3,0.8,2.8,0.8,4.5V35.1z"/>
<path class="st2" d="M85.7,35.1h-6v-1.3c-1.1,0.7-2.2,1.2-3.3,1.5c-1.2,0.3-2.4,0.4-3.6,0.4c-1.2,0-2.2-0.2-3.1-0.5
	c-0.9-0.3-1.8-0.8-2.4-1.5c-0.7-0.6-1.2-1.4-1.6-2.3c-0.4-0.9-0.6-1.9-0.6-2.9c0-1.4,0.3-2.5,0.9-3.5c0.6-1,1.4-1.8,2.4-2.5
	c1-0.7,2.2-1.2,3.6-1.5c1.4-0.3,2.8-0.5,4.4-0.5h3.4c0-1.4-0.5-2.5-1.4-3.4c-0.9-0.8-2.2-1.2-3.9-1.2c-0.8,0-1.7,0.2-2.6,0.5
	c-0.9,0.3-1.8,0.9-2.7,1.7l-3.5-3.6c1.3-1.2,2.7-2.2,4.4-2.8c1.7-0.7,3.4-1,5.2-1c1.7,0,3.1,0.3,4.4,0.8c1.3,0.5,2.3,1.2,3.1,2
	c1,1.1,1.8,2.2,2.2,3.5c0.4,1.3,0.6,3,0.6,5V35.1z M79.8,29.1v-4.4H77c-0.8,0-1.6,0.1-2.3,0.2c-0.7,0.1-1.4,0.3-1.9,0.6
	c-0.5,0.3-1,0.6-1.3,1c-0.3,0.4-0.5,0.9-0.5,1.5c0,0.8,0.3,1.5,1,2c0.6,0.5,1.5,0.8,2.5,0.8c0.9,0,1.8-0.1,2.6-0.4
	C78,30,78.9,29.6,79.8,29.1z"/>
<path class="st2" d="M112,35.1h-6V20.8c0-0.9-0.1-1.6-0.4-2.3c-0.3-0.6-0.6-1.2-1-1.6c-0.4-0.4-0.9-0.7-1.5-1
	c-0.6-0.2-1.2-0.3-1.8-0.3c-0.9,0-1.8,0.1-2.6,0.4c-0.8,0.3-1.6,0.7-2.4,1.2v17.9h-6V0.7h6l0,11.8c0.9-0.7,1.9-1.2,3.1-1.5
	c1.2-0.3,2.3-0.5,3.4-0.5c1.2,0,2.4,0.2,3.5,0.6c1.1,0.4,2.1,1,2.9,1.8c0.9,0.8,1.5,1.8,2,3.1c0.5,1.2,0.7,2.7,0.7,4.4V35.1z"/>
<linearGradient id="SVGID_1_" gradientUnits="userSpaceOnUse" x1="116.5513" y1="6.9526" x2="122.7673" y2="0.7366">
	<stop  offset="0" style="stop-color:#11998E"/>
	<stop  offset="1" style="stop-color:#38EF7D"/>
</linearGradient>
<rect x="116.6" y="0.7" class="st3" width="6.2" height="6.2"/>
<rect x="116.6" y="11.1" class="st2" width="6.1" height="24"/>
<path class="st2" d="M147.6,35.1h-6v-1.3c-1.1,0.7-2.2,1.2-3.3,1.5c-1.2,0.3-2.4,0.4-3.6,0.4c-1.2,0-2.2-0.2-3.1-0.5
	c-0.9-0.3-1.8-0.8-2.4-1.5c-0.7-0.6-1.2-1.4-1.6-2.3c-0.4-0.9-0.6-1.9-0.6-2.9c0-1.4,0.3-2.5,0.9-3.5c0.6-1,1.4-1.8,2.4-2.5
	c1-0.7,2.2-1.2,3.6-1.5c1.4-0.3,2.8-0.5,4.4-0.5h3.4c0-1.4-0.5-2.5-1.4-3.4c-0.9-0.8-2.2-1.2-3.9-1.2c-0.8,0-1.7,0.2-2.6,0.5
	c-0.9,0.3-1.8,0.9-2.7,1.7l-3.5-3.6c1.3-1.2,2.7-2.2,4.4-2.8c1.7-0.7,3.4-1,5.2-1c1.7,0,3.1,0.3,4.4,0.8c1.3,0.5,2.3,1.2,3.1,2
	c1,1.1,1.8,2.2,2.2,3.5c0.4,1.3,0.6,3,0.6,5V35.1z M141.6,29.1v-4.4h-2.7c-0.8,0-1.6,0.1-2.3,0.2c-0.7,0.1-1.4,0.3-1.9,0.6
	c-0.5,0.3-1,0.6-1.3,1c-0.3,0.4-0.5,0.9-0.5,1.5c0,0.8,0.3,1.5,1,2c0.6,0.5,1.5,0.8,2.5,0.8c0.9,0,1.8-0.1,2.6-0.4
	C139.9,30,140.7,29.6,141.6,29.1z"/>
<path class="st2" d="M174,35.1h-6V20.8c0-0.9-0.1-1.6-0.4-2.3c-0.3-0.6-0.6-1.2-1.1-1.6c-0.4-0.4-1-0.7-1.5-1
	c-0.6-0.2-1.2-0.3-1.8-0.3c-0.9,0-1.8,0.2-2.7,0.5c-0.9,0.3-1.7,0.8-2.4,1.5v17.4h-6v-24h6l0,1.8c0.4-0.4,0.8-0.7,1.3-1
	c0.5-0.3,1.1-0.6,1.6-0.8c0.6-0.2,1.1-0.4,1.7-0.5c0.6-0.1,1.2-0.2,1.7-0.2c1.2,0,2.4,0.2,3.5,0.6c1.1,0.4,2.1,1,3,1.8
	s1.6,1.8,2.1,3.1c0.5,1.3,0.8,2.8,0.8,4.5V35.1z"/>
<g>
	<path class="st2" d="M1,38.2h2.3c0.5,0,1,0.1,1.4,0.3s0.7,0.4,1,0.7c0.3,0.3,0.4,0.6,0.6,1c0.1,0.4,0.2,0.7,0.2,1.1
		c0,0.4-0.1,0.8-0.2,1.2s-0.3,0.7-0.6,1c-0.2,0.3-0.6,0.6-1,0.7c-0.4,0.2-0.9,0.3-1.4,0.3H1V38.2L1,38.2z M5,43
		c0.4-0.5,0.6-1.1,0.6-1.7c0-0.6-0.2-1.2-0.6-1.6S4,39,3.3,39H1.8v4.8h1.5C4,43.7,4.6,43.5,5,43z"/>
	<path class="st2" d="M12.8,40.6c0.4-0.4,1-0.7,1.7-0.7c0.7,0,1.2,0.2,1.7,0.6c0.4,0.4,0.6,1,0.6,1.7c0,0.7-0.2,1.2-0.7,1.7
		c-0.4,0.4-1,0.6-1.7,0.6c-0.7,0-1.2-0.2-1.7-0.6c-0.4-0.4-0.7-1-0.7-1.7C12.1,41.6,12.3,41,12.8,40.6z M15.6,41.1
		c-0.3-0.3-0.7-0.5-1.1-0.5c-0.5,0-0.8,0.2-1.1,0.5c-0.3,0.3-0.4,0.7-0.4,1.2c0,0.5,0.1,0.9,0.4,1.2s0.7,0.5,1.1,0.5
		s0.8-0.2,1.1-0.5c0.3-0.3,0.4-0.7,0.5-1.2C16,41.8,15.9,41.4,15.6,41.1z"/>
	<path class="st2" d="M22.7,40.1h0.7l0,0.6c0.1-0.2,0.3-0.4,0.5-0.5c0.2-0.1,0.5-0.2,0.8-0.2c0.3,0,0.6,0.1,0.9,0.2s0.5,0.4,0.6,0.7
		c0.2-0.3,0.4-0.6,0.6-0.7c0.3-0.2,0.6-0.2,0.9-0.2c0.6,0,1,0.2,1.4,0.5s0.5,0.8,0.5,1.4v2.5H29V42c0-0.4-0.1-0.7-0.3-0.9
		s-0.5-0.4-0.8-0.4c-0.4,0-0.7,0.1-0.9,0.4s-0.3,0.6-0.3,0.9v2.5h-0.7V42c0-0.4-0.1-0.7-0.3-0.9c-0.2-0.2-0.5-0.4-0.9-0.4
		c-0.4,0-0.7,0.1-0.9,0.4s-0.3,0.6-0.3,0.9v2.5h-0.7L22.7,40.1L22.7,40.1z"/>
	<path class="st2" d="M36,38.3c0.2-0.1,0.3-0.1,0.5,0s0.2,0.2,0.2,0.4s-0.1,0.3-0.2,0.4s-0.3,0.1-0.5,0s-0.2-0.2-0.2-0.4
		S35.9,38.4,36,38.3z M35.9,44.5h0.7V40h-0.7V44.5z"/>
	<path class="st2" d="M42.9,40.1h0.7l0,0.7c0.4-0.5,0.9-0.8,1.5-0.8c0.6,0,1,0.2,1.4,0.6c0.4,0.4,0.5,0.9,0.5,1.5v2.5h-0.7v-2.4
		c0-0.4-0.1-0.8-0.4-1s-0.6-0.4-1-0.4c-0.4,0-0.7,0.1-1,0.4c-0.3,0.3-0.4,0.6-0.4,1v2.4h-0.7V40.1L42.9,40.1z"/>
	<path class="st2" d="M56.9,44.5l0-0.8c-0.2,0.3-0.4,0.5-0.7,0.7c-0.3,0.2-0.6,0.2-0.9,0.2c-0.7,0-1.2-0.2-1.6-0.6
		c-0.4-0.4-0.6-1-0.6-1.7c0-0.7,0.2-1.3,0.7-1.7s1-0.6,1.6-0.6c0.3,0,0.7,0.1,1,0.2c0.3,0.2,0.5,0.4,0.7,0.7l0-0.8h0.7v4.4
		L56.9,44.5L56.9,44.5z M55.3,40.7c-0.5,0-0.8,0.1-1.1,0.4c-0.3,0.3-0.5,0.7-0.5,1.2c0,0.5,0.2,0.9,0.5,1.2c0.3,0.3,0.7,0.5,1.1,0.5
		c0.3,0,0.6-0.1,0.8-0.2s0.4-0.3,0.5-0.5c0.1-0.2,0.2-0.4,0.3-0.6c0.1-0.2,0.1-0.5,0-0.7c-0.1-0.2-0.1-0.4-0.3-0.6
		c-0.1-0.2-0.3-0.3-0.5-0.5S55.6,40.7,55.3,40.7L55.3,40.7z"/>
	<path class="st2" d="M65.2,40.1h1.4v0.6h-1.4v2.4c0,0.6,0.2,0.9,0.7,0.9c0.2,0,0.4-0.1,0.6-0.2l0.2,0.6c-0.3,0.1-0.6,0.2-0.9,0.2
		c-0.9,0-1.4-0.5-1.4-1.5v-2.4h-0.9v-0.6h0.9v-1.2l0.7-0.1V40.1z"/>
	<path class="st2" d="M72.5,38.3c0.2-0.1,0.3-0.1,0.5,0s0.2,0.2,0.2,0.4s-0.1,0.3-0.2,0.4s-0.3,0.1-0.5,0s-0.2-0.2-0.2-0.4
		S72.4,38.4,72.5,38.3z M72.4,44.5h0.7V40h-0.7V44.5z"/>
	<path class="st2" d="M79.4,40.1h0.7l0,0.7c0.4-0.5,0.9-0.8,1.5-0.8c0.6,0,1,0.2,1.4,0.6c0.4,0.4,0.5,0.9,0.5,1.5v2.5h-0.7v-2.4
		c0-0.4-0.1-0.8-0.4-1s-0.6-0.4-1-0.4c-0.4,0-0.7,0.1-1,0.4c-0.3,0.3-0.4,0.6-0.4,1v2.4h-0.7V40.1L79.4,40.1z"/>
	<path class="st2" d="M90.7,46.2c0.3,0.2,0.7,0.3,1.1,0.3c0.4,0,0.8-0.1,1.1-0.3s0.5-0.4,0.5-0.8c0-0.3-0.1-0.6-0.4-0.8
		c-0.3-0.2-0.7-0.3-1.1-0.3c-0.7,0-1.3-0.2-1.7-0.6c-0.4-0.4-0.6-0.9-0.6-1.6c0-0.7,0.2-1.2,0.7-1.6c0.5-0.4,1-0.6,1.6-0.6
		c0.5,0,0.9,0.1,1.3,0.3l0.5-0.6l0.5,0.4l-0.5,0.6c0.4,0.4,0.6,0.9,0.6,1.4c0,0.4-0.1,0.8-0.3,1.1c-0.2,0.3-0.5,0.6-0.9,0.7
		c0.8,0.2,1.2,0.7,1.2,1.4c0,0.5-0.2,1-0.7,1.3c-0.5,0.3-1,0.5-1.6,0.5c-0.7,0-1.2-0.2-1.7-0.5c-0.4-0.3-0.6-0.8-0.6-1.4h0.7
		C90.3,45.7,90.4,46,90.7,46.2z M90.7,43.3c0.3,0.3,0.7,0.4,1.2,0.4c0.5,0,0.9-0.1,1.2-0.4c0.3-0.3,0.5-0.7,0.5-1.1
		c0-0.5-0.2-0.9-0.5-1.1c-0.3-0.3-0.7-0.4-1.1-0.4c-0.4,0-0.8,0.1-1.1,0.4c-0.3,0.3-0.5,0.6-0.5,1.1C90.2,42.7,90.4,43,90.7,43.3z"
		/>
	<path class="st2" d="M106.6,38.9v-0.7h5.1v0.7h-2.2v5.6h-0.8v-5.6H106.6z"/>
	<path class="st2" d="M118.1,38.2v2.6c0.3-0.5,0.8-0.8,1.5-0.8c0.6,0,1.1,0.2,1.4,0.6c0.3,0.4,0.5,0.9,0.5,1.5v2.4h-0.7v-2.4
		c0-0.4-0.1-0.8-0.3-1c-0.2-0.2-0.5-0.4-0.9-0.4c-0.4,0-0.7,0.1-1,0.4s-0.4,0.6-0.4,1v2.4h-0.7v-6.3L118.1,38.2L118.1,38.2z"/>
	<path class="st2" d="M131.7,43.8c-0.2,0.3-0.5,0.5-0.8,0.6c-0.3,0.1-0.7,0.2-1.1,0.2c-0.7,0-1.3-0.2-1.7-0.6s-0.6-1-0.6-1.7
		c0-0.7,0.2-1.2,0.6-1.7c0.4-0.4,1-0.6,1.7-0.6c0.7,0,1.3,0.2,1.7,0.7c0.4,0.4,0.6,1.1,0.5,1.9h-3.8c0,0.4,0.2,0.7,0.5,1
		c0.3,0.2,0.7,0.4,1.1,0.4c0.3,0,0.5,0,0.8-0.1c0.3-0.1,0.5-0.2,0.6-0.4L131.7,43.8L131.7,43.8z M131.3,42c0-0.4-0.2-0.8-0.4-1
		c-0.3-0.2-0.6-0.3-1.1-0.3c-0.4,0-0.8,0.1-1,0.4c-0.3,0.2-0.5,0.6-0.5,1L131.3,42L131.3,42z"/>
	<path class="st2" d="M145.3,38.2l1.7,5.2l1.7-5.2h0.5l1.8,5.2l1.7-5.2h0.9l-2.2,6.3h-0.8l-1.6-4.7l-1.6,4.7h-0.8l-2.2-6.3H145.3z"
		/>
	<path class="st2" d="M163,43.8c-0.2,0.3-0.5,0.5-0.8,0.6c-0.3,0.1-0.7,0.2-1.1,0.2c-0.7,0-1.3-0.2-1.7-0.6s-0.6-1-0.6-1.7
		c0-0.7,0.2-1.2,0.6-1.7c0.4-0.4,1-0.6,1.7-0.6c0.7,0,1.3,0.2,1.7,0.7c0.4,0.4,0.6,1.1,0.5,1.9h-3.8c0,0.4,0.2,0.7,0.5,1
		c0.3,0.2,0.7,0.4,1.1,0.4c0.3,0,0.5,0,0.8-0.1c0.3-0.1,0.5-0.2,0.6-0.4L163,43.8L163,43.8z M162.5,42c0-0.4-0.2-0.8-0.4-1
		c-0.3-0.2-0.6-0.3-1.1-0.3c-0.4,0-0.8,0.1-1,0.4c-0.3,0.2-0.5,0.6-0.5,1L162.5,42L162.5,42z"/>
	<path class="st2" d="M169.9,40.9c0.1-0.3,0.4-0.5,0.7-0.7c0.3-0.2,0.6-0.2,1-0.2c0.7,0,1.2,0.2,1.6,0.6c0.4,0.4,0.6,1,0.6,1.7
		c0,0.7-0.2,1.3-0.6,1.7c-0.4,0.4-1,0.6-1.6,0.6c-0.3,0-0.7-0.1-1-0.2c-0.3-0.1-0.5-0.4-0.7-0.7l0,0.8h-0.7v-6.3h0.7V40.9z
		 M170.4,41.1c-0.3,0.3-0.5,0.7-0.5,1.2c0,0.5,0.2,0.9,0.5,1.2c0.3,0.3,0.7,0.5,1.1,0.5s0.8-0.1,1.1-0.4c0.3-0.3,0.4-0.7,0.4-1.2
		c0-0.5-0.1-0.9-0.4-1.2c-0.3-0.3-0.7-0.4-1.1-0.4C171.1,40.7,170.7,40.8,170.4,41.1z"/>
</g>
</svg>
