<svg id="Capa_1" enable-background="new 0 0 512 512" height="80px" viewBox="0 0 512 512" width="80px" xmlns="http://www.w3.org/2000/svg"><g><g><g><path d="m5.037 111.227-5.037 9.073v262.293c0 17.309 14.031 31.34 31.34 31.34h449.32c17.309 0 31.34-14.031 31.34-31.34v-262.293l-5.037-9.073z" fill="#d8eafb"/></g><g><path d="m460.682 111.227v220.049c0 17.309-14.031 31.34-31.34 31.34h-429.342v19.977c0 17.309 14.031 31.34 31.34 31.34h449.32c17.309 0 31.34-14.031 31.34-31.34v-262.293l-5.037-9.073z" fill="#b3d8fb"/></g><g><path d="m480.66 33.811h-449.32c-17.309 0-31.34 14.031-31.34 31.34v55.15h512v-55.15c0-17.309-14.031-31.34-31.34-31.34z" fill="#1690fb"/></g><g><path d="m480.66 33.811h-19.977v86.49h51.317v-55.15c0-17.309-14.031-31.34-31.34-31.34z" fill="#0571f9"/></g><g><g><circle cx="54.764" cy="77.055" fill="#b3d8fb" r="14.06"/></g><g><circle cx="98.016" cy="77.055" fill="#b3d8fb" r="14.06"/></g><g><circle cx="141.269" cy="77.055" fill="#b3d8fb" r="14.06"/></g></g></g><g><circle cx="256" cy="315.027" fill="#fceed9" r="148.051"/></g><g><path d="m340.628 193.544c16.741 23.987 26.568 53.158 26.568 84.628 0 81.766-66.285 148.051-148.051 148.051-31.47 0-60.641-9.827-84.628-26.568 26.756 38.337 71.187 63.423 121.483 63.423 81.766 0 148.051-66.285 148.051-148.051 0-50.296-25.086-94.726-63.423-121.483z" fill="#fad59a"/></g><g><path d="m336.466 353.387c-14.337 30.021-44.979 50.761-80.466 50.761-49.22 0-89.121-39.901-89.121-89.121s39.901-89.121 89.121-89.121 86.015 115.863 80.466 127.481z" fill="#f9c301"/></g><g><g><path d="m256 478.189c-89.968 0-163.163-73.194-163.163-163.162s73.194-163.163 163.163-163.163c89.967 0 163.162 73.194 163.162 163.163 0 89.968-73.194 163.162-163.162 163.162zm0-296.102c-73.304 0-132.94 59.637-132.94 132.94s59.637 132.94 132.94 132.94 132.939-59.637 132.939-132.94c.001-73.303-59.636-132.94-132.939-132.94z" fill="#7c8b96"/></g></g><g><g><path d="m362.251 191.305c24.569 28.568 39.441 65.704 39.441 106.252 0 89.968-73.194 163.162-163.162 163.162-40.547 0-77.683-14.872-106.252-39.441 29.946 34.821 74.301 56.911 123.723 56.911 89.967 0 163.162-73.194 163.162-163.162-.001-49.421-22.092-93.776-56.912-123.722z" fill="#465961"/></g></g><g><path d="m336.48 353.351c2.966-6.404-6.51-43.39-23.656-75.882.108 1.798.172 3.608.172 5.433 0 49.22-39.901 89.121-89.121 89.121-16.366 0-31.699-4.416-44.881-12.115 15.455 26.46 44.152 44.241 77.006 44.241 35.5-.001 66.15-20.759 80.48-50.798z" fill="#d4a806"/></g><g><path d="m256 225.906v89.121l80.466 38.36c5.549-11.618 8.655-24.626 8.655-38.36 0-49.22-39.901-89.121-89.121-89.121z" fill="#dd636e"/></g><g><path d="m300.881 238.021c7.699 13.181 12.115 28.514 12.115 44.88 0 19.183-6.062 36.95-16.373 51.491l39.844 18.995c5.549-11.618 8.655-24.626 8.655-38.36-.001-32.854-17.781-61.551-44.241-77.006z" fill="#d82e3d"/></g><g><path d="m261.182 327.021c-5.074 5.074-13.301 5.074-18.375 0s-5.074-13.301 0-18.375c3.4-3.4 47.968-39.717 77.005-63.311 3.106-2.523 7.204 1.575 4.68 4.68-23.593 29.038-59.91 73.606-63.31 77.006z" fill="#7c8b96"/></g><g><path d="m319.812 245.335c-10.335 8.397-22.636 18.406-34.35 27.969-18.961 23.27-38.676 47.341-43.502 52.78.265.322.545.635.846.936 5.074 5.074 13.301 5.074 18.375 0 3.4-3.4 39.717-47.968 63.311-77.005 2.524-3.105-1.574-7.203-4.68-4.68z" fill="#465961"/></g><g><path d="m107.036 180.549h-57.313c-4.173 0-7.556-3.382-7.556-7.556 0-4.173 3.382-7.556 7.556-7.556h57.313c4.173 0 7.556 3.382 7.556 7.556-.001 4.174-3.383 7.556-7.556 7.556z" fill="#1690fb"/></g><g><path d="m82.726 212.283h-33.003c-4.173 0-7.556-3.382-7.556-7.556s3.382-7.556 7.556-7.556h33.003c4.173 0 7.556 3.382 7.556 7.556s-3.383 7.556-7.556 7.556z" fill="#1690fb"/></g><g><path d="m455.809 201.1c-12.566 0-22.789-10.224-22.789-22.79s10.223-22.789 22.789-22.789 22.79 10.223 22.79 22.789-10.224 22.79-22.79 22.79zm0-30.467c-4.233 0-7.678 3.444-7.678 7.678s3.444 7.679 7.678 7.679 7.679-3.444 7.679-7.679c-.001-4.234-3.445-7.678-7.679-7.678z" fill="#1690fb"/></g><g><path d="m455.809 260.617c-12.566 0-22.789-10.224-22.789-22.79s10.223-22.789 22.789-22.789 22.79 10.223 22.79 22.789-10.224 22.79-22.79 22.79zm0-30.467c-4.233 0-7.678 3.444-7.678 7.678s3.444 7.679 7.678 7.679 7.679-3.444 7.679-7.679c-.001-4.234-3.445-7.678-7.679-7.678z" fill="#1690fb"/></g></g></svg>