<?xml version="1.0" encoding="utf-8"?>
<!-- Generator: Adobe Illustrator 22.0.1, SVG Export Plug-In . SVG Version: 6.00 Build 0)  -->
<svg version="1.1" id="Layer_1" xmlns="http://www.w3.org/2000/svg" xmlns:xlink="http://www.w3.org/1999/xlink" x="0px" y="0px"
	 width="80px" height="80px" viewBox="0 0 80 80" style="enable-background:new 0 0 80 80;" xml:space="preserve">
<style type="text/css">
	.st0{fill:#00C88F;}
	.st1{fill:#00E095;}
</style>
<path class="st0" d="M46.9,56c-0.2-0.7-0.8-1.3-1.5-1.6l-12.9-5c-0.8-0.3-1.6-0.2-2.3,0.3c-0.7,0.5-1.1,1.2-1.1,2.1v22.5
	c0,1.1,0.7,2,1.7,2.4c0.3,0.1,0.5,0.1,0.8,0.1c0.8,0,1.5-0.4,2-1l12.9-17.5C47,57.5,47.1,56.7,46.9,56z"/>
<path class="st1" d="M78.9,0.5c-0.8-0.5-1.8-0.6-2.6-0.2l-75,39.2c-0.9,0.5-1.4,1.4-1.3,2.4c0.1,1,0.7,1.9,1.7,2.2l65.8,22.5
	c0.3,0.1,0.5,0.1,0.8,0.1c0.5,0,0.9-0.1,1.3-0.4c0.6-0.4,1.1-1,1.2-1.8L80,2.9C80.1,1.9,79.7,1,78.9,0.5z"/>
</svg>
