<?xml version="1.0" encoding="utf-8"?>
<!-- Generator: Adobe Illustrator 22.0.1, SVG Export Plug-In . SVG Version: 6.00 Build 0)  -->
<svg version="1.1" id="Capa_1" xmlns="http://www.w3.org/2000/svg" xmlns:xlink="http://www.w3.org/1999/xlink" x="0px" y="0px"
	 width="80px" height="80px" viewBox="0 0 80 80" style="enable-background:new 0 0 80 80;" xml:space="preserve">
<style type="text/css">
	.st0{fill:#00C88F;}
	.st1{fill:#00AF75;}
	.st2{fill:#FFE278;}
	.st3{fill:#FFC178;}
	.st4{fill:#3D444D;}
	.st5{fill:#23272B;}
	.st6{fill:#ECF7FD;}
	.st7{fill:#CDE2FF;}
</style>
<g>
	<g>
		<path class="st0" d="M5.5,39.2c-0.1-0.1-0.2-0.3-0.3-0.4c-0.4-0.6-0.5-1.4-0.2-2.1c0.1-0.2,2.4-5.7,7.8-10.9
			c5-4.8,13.7-10.3,26.7-9.1l-17,24.2L7,39.9C6.4,39.8,5.9,39.6,5.5,39.2z"/>
	</g>
	<g>
		<g>
			<path class="st1" d="M40.8,74.5c-0.4-0.4-0.6-0.9-0.7-1.5l-1-15.5l24.2-17c1.2,13-4.3,21.7-9.1,26.7c-5.2,5.4-10.6,7.7-10.9,7.8
				c-0.7,0.3-1.5,0.2-2.1-0.2C41.1,74.7,41,74.6,40.8,74.5z"/>
		</g>
	</g>
	<g>
		<path class="st2" d="M0.7,79.3c-0.7-0.7-0.9-1.9-0.4-2.8c1.3-2.4,13-23.6,17.6-28.3l13.8,13.8C27.1,66.7,5.9,78.4,3.5,79.7
			C2.6,80.2,1.4,80,0.7,79.3z"/>
	</g>
	<path class="st3" d="M0.7,79.3c0.7,0.7,1.9,0.9,2.8,0.4c2.4-1.3,23.6-13,28.3-17.6l-6.9-6.9L0.7,79.3z"/>
	<g>
		<path class="st4" d="M13.7,47.4c-0.4-0.4-0.7-1-0.7-1.7c0-0.6,0.2-1.2,0.7-1.7l7.3-7.3c0.9-0.9,2.4-0.9,3.3,0l18.8,18.8
			c0.9,0.9,0.9,2.4,0,3.3l-7.2,7.2c-0.9,0.9-2.4,0.9-3.3,0L13.7,47.4C13.7,47.5,13.7,47.4,13.7,47.4z"/>
	</g>
	<path class="st5" d="M43.1,55.7l-9.4-9.4L23.2,56.8l9.4,9.4c0.9,0.9,2.4,0.9,3.3,0l7.2-7.2C44.1,58.1,44.1,56.6,43.1,55.7z"/>
	<g>
		<path class="st0" d="M70.6,24.5L55.5,9.4c-0.5-0.5-0.8-1.3-0.7-2C54.9,6.7,55.4,6,56,5.7c3.3-1.7,6.8-3.3,10.4-4.9
			c3.7-1.6,7.8-0.8,10.7,2.1c0,0,0,0,0,0c2.9,2.9,3.7,7,2.1,10.7c-1.6,3.6-3.2,7.1-4.9,10.4c-0.3,0.7-1,1.1-1.7,1.2
			C71.8,25.3,71.1,25.1,70.6,24.5z"/>
	</g>
	<path class="st1" d="M79.2,13.6c1.6-3.7,0.8-7.8-2.1-10.7L63,17l7.6,7.6c0.5,0.5,1.3,0.8,2,0.7c0.7-0.1,1.4-0.6,1.7-1.2
		C76,20.7,77.6,17.2,79.2,13.6z"/>
	<path class="st6" d="M42.8,59.3c5.5-3.5,11.1-8.1,16.3-13.3c5.3-5.3,10.4-12.7,15.2-22c0,0,0,0,0,0L56,5.7
		c-9.3,4.8-16.7,9.9-22,15.2c-5.2,5.2-9.8,10.9-13.3,16.3L42.8,59.3z"/>
	<path class="st7" d="M74.3,24l-9.1-9.1L31.7,48.3l11,11c5.5-3.5,11.1-8.1,16.3-13.3C64.4,40.7,69.5,33.3,74.3,24
		C74.3,24,74.3,24,74.3,24z"/>
	<circle class="st1" cx="46.6" cy="33.4" r="5.1"/>
	<path class="st0" d="M50.2,29.8l-7.2,7.2c2,2,5.2,2,7.2,0C52.2,35.1,52.2,31.8,50.2,29.8z"/>
	<path class="st4" d="M41.3,38.7c-2.9-2.9-2.9-7.6,0-10.6c2.9-2.9,7.6-2.9,10.6,0c2.9,2.9,2.9,7.6,0,10.6
		C48.9,41.6,44.2,41.6,41.3,38.7z M48.5,31.5c-1.1-1.1-2.8-1.1-3.9,0c-1.1,1.1-1.1,2.8,0,3.9c1.1,1.1,2.8,1.1,3.9,0
		C49.6,34.3,49.6,32.6,48.5,31.5z"/>
	<path class="st5" d="M51.8,28.2l-3.3,3.3c1.1,1.1,1.1,2.8,0,3.9c-1.1,1.1-2.8,1.1-3.9,0l-3.3,3.3c2.9,2.9,7.6,2.9,10.6,0
		S54.7,31.1,51.8,28.2z"/>
</g>
</svg>
