<svg id="Layer_1" enable-background="new 0 0 512 512" height="80px" viewBox="0 0 512 512" width="80px" xmlns="http://www.w3.org/2000/svg"><g><g><g><g><path d="m454.891 316.203c-4.267 0-7.726 3.459-7.726 7.726v108.592c0 27.181-22.19 49.293-49.465 49.293h-64.766c-4.267 0-7.726 3.459-7.726 7.726s3.459 7.726 7.726 7.726h64.766c35.796 0 64.918-29.045 64.918-64.746v-108.59c0-4.268-3.46-7.727-7.727-7.727z" fill="#d9ddff"/><path d="m312.095 512h41.025c12.252 0 22.184-9.932 22.184-22.184 0-12.252-9.932-22.184-22.184-22.184h-41.025c-12.252 0-22.184 9.932-22.184 22.184 0 12.252 9.932 22.184 22.184 22.184z" fill="#7776d0"/></g></g><g><path d="m489.912 378.527h-34.323v-144.526c0-110.089-89.501-199.653-199.512-199.653s-199.513 89.564-199.513 199.653v144.526h-34.324v-144.526c0-129.028 104.899-234.001 233.836-234.001 128.938 0 233.836 104.973 233.836 234.001z" fill="#d9ddff"/><g><g><g><g><path d="m78.574 230.17h-34.891c-24.125 0-43.683 19.558-43.683 43.683v74.66c0 24.125 19.558 43.683 43.683 43.683h34.891z" fill="#7776d0"/></g></g><path d="m78.574 207.36c11.855 0 21.465 9.61 21.465 21.465v162.064c0 11.855-9.61 21.465-21.465 21.465-11.855 0-21.465-9.61-21.465-21.465v-162.064c0-11.854 9.61-21.465 21.465-21.465z" fill="#e8f3ff"/></g><g><g><g><path d="m433.426 389.544h34.891c24.125 0 43.683-19.558 43.683-43.683v-74.66c0-24.125-19.558-43.683-43.683-43.683h-34.891z" fill="#7776d0"/></g></g><path d="m433.426 412.354c-11.855 0-21.465-9.61-21.465-21.465v-162.064c0-11.855 9.61-21.465 21.465-21.465 11.855 0 21.465 9.61 21.465 21.465v162.064c0 11.855-9.61 21.465-21.465 21.465z" fill="#e8f3ff"/></g></g></g></g><g><g><path d="m256 203.713c59.809 0 108.294 48.476 108.294 108.274 0 31.53-13.484 59.908-34.996 79.697v28.548l-25.822-10.909c-14.336 7.003-30.445 10.938-47.475 10.938-59.809 0-108.294-48.476-108.294-108.274-.001-59.798 48.484-108.274 108.293-108.274z" fill="#ff8ccc"/></g><path d="m256 203.713c-7.045 0-13.933.673-20.604 1.958 49.955 9.62 87.69 53.562 87.69 106.317 0 51.665-38.735 96.404-87.988 106.259 6.763 1.322 13.751 2.016 20.902 2.016 17.03 0 33.139-3.935 47.475-10.938l25.822 10.909v-28.548c21.512-19.788 34.996-48.166 34.996-79.697.001-59.8-48.484-108.276-108.293-108.276z" fill="#ff78c2"/><g fill="#fff"><path d="m235.334 276.377h41.332c4.267 0 7.726-3.459 7.726-7.726s-3.459-7.726-7.726-7.726h-41.332c-4.267 0-7.726 3.459-7.726 7.726s3.459 7.726 7.726 7.726z"/><path d="m276.666 347.597h-41.332c-4.267 0-7.726 3.459-7.726 7.726s3.459 7.726 7.726 7.726h41.332c4.267 0 7.726-3.459 7.726-7.726s-3.459-7.726-7.726-7.726z"/><path d="m298.778 304.261h-85.556c-4.267 0-7.726 3.459-7.726 7.726s3.459 7.726 7.726 7.726h85.556c4.267 0 7.726-3.459 7.726-7.726.001-4.267-3.459-7.726-7.726-7.726z"/></g></g><g><g><path d="m366.79 0c-50.886 0-92.137 41.243-92.137 92.12 0 26.826 11.472 50.97 29.775 67.806v24.289l21.97-9.281c12.197 5.958 25.903 9.306 40.392 9.306 50.886 0 92.137-41.244 92.137-92.12 0-50.877-41.251-92.12-92.137-92.12z" fill="#ffd54d"/></g><g><path d="m366.79 0c-7.083 0-13.979.8-20.604 2.312 40.966 9.356 71.533 46.013 71.533 89.807 0 43.793-30.564 80.448-71.528 89.806 6.623 1.513 13.517 2.314 20.599 2.314 50.885 0 92.137-41.244 92.137-92.12s-41.251-92.119-92.137-92.119z" fill="#ffc919"/></g><g fill="#fff"><path d="m399.747 64.407c-.891-17.177-15.07-30.904-32.28-31.251-16.739-.32-31.055 11.874-33.361 28.401-.211 1.512-.318 3.058-.318 4.595 0 4.267 3.459 7.726 7.726 7.726s7.726-3.459 7.726-7.726c0-.824.057-1.651.17-2.458 1.225-8.781 8.876-15.282 17.745-15.089 9.148.185 16.686 7.477 17.159 16.602.253 4.872-1.451 9.496-4.799 13.022-3.35 3.529-7.87 5.472-12.726 5.472-4.267 0-7.726 3.459-7.726 7.726v26.431c0 4.267 3.459 7.726 7.726 7.726s7.726-3.459 7.726-7.726v-19.63c6.136-1.488 11.805-4.722 16.206-9.358 6.296-6.63 9.501-15.318 9.026-24.463z"/><path d="m366.79 136.658c-9.943 0-9.96 15.453 0 15.453 9.943 0 9.96-15.453 0-15.453z"/></g></g></g></svg>