<?xml version="1.0" encoding="iso-8859-1"?>
<!-- Generator: Adobe Illustrator 19.0.0, SVG Export Plug-In . SVG Version: 6.00 Build 0)  -->
<svg width="80px" height="80px" version="1.1" id="Layer_1" xmlns="http://www.w3.org/2000/svg" xmlns:xlink="http://www.w3.org/1999/xlink" x="0px" y="0px"
	 viewBox="0 0 512 512" style="enable-background:new 0 0 512 512;" xml:space="preserve">
<path style="fill:#3D99E2;" d="M389.115,125.883L182.253,6.45c-13.066-7.544-24.905-8.245-33.454-3.277L90.411,37.104
	c0.027-0.016,0.057-0.028,0.085-0.045C82.008,41.943,76.74,52.388,76.697,67.26l-0.674,237.702
	c-0.085,29.835,20.898,66.178,46.862,81.168l206.863,119.432c13.441,7.759,25.573,8.262,34.17,2.818
	c-0.239,0.151-0.472,0.314-0.718,0.458l58.386-33.93c8.44-4.905,13.672-15.333,13.715-30.155l0.674-237.702
	C436.062,177.209,415.079,140.873,389.115,125.883z"/>
<g style="enable-background:new    ;">
	<path style="fill:#5AAAE7;" d="M421.588,474.907l-58.386,33.93c8.44-4.905,13.674-15.333,13.715-30.155l58.386-33.93
		C435.261,459.573,430.027,470.002,421.588,474.907z"/>
	<g>
		<path style="fill:#78BAEC;" d="M90.411,37.104l58.386-33.93c8.549-4.968,20.388-4.267,33.454,3.277l-58.386,33.93
			C110.799,32.837,98.961,32.135,90.411,37.104z"/>
		<polygon style="fill:#78BAEC;" points="377.591,240.981 435.977,207.05 435.303,444.752 376.917,478.682 		"/>
	</g>
	<polygon style="fill:#97C7EF;" points="123.866,40.381 182.253,6.45 389.115,125.883 330.729,159.813 	"/>
	<path style="fill:#B3D8F5;" d="M330.729,159.813l58.386-33.93c25.965,14.99,46.946,51.327,46.862,81.168l-58.386,33.93
		C377.676,211.14,356.693,174.804,330.729,159.813z"/>
</g>
<g style="enable-background:new    ;">
	<path style="fill:#FFFFFF;" d="M223.775,373.663c-8.577-4.952-16.832-11.158-24.645-18.309l26.435-72.284l26.581,99.889
		c0.165,0.608,0.378,1.164,0.613,1.726C243.673,383.118,233.925,379.523,223.775,373.663 M185.726,341.621
		c-29.073-33.037-49.04-78.939-48.928-118.589c0.041-14.54,2.787-26.769,7.666-36.439L185.726,341.621 M267.68,385.382l26.884-73.15
		c5.025-11.433,6.722-21.896,6.75-32.06c0.01-3.697-0.206-7.239-0.567-10.668c6.775,18.227,10.595,36.833,10.546,54.272
		C311.189,360.761,293.653,382.971,267.68,385.382 M156.926,179.626c-1.644-0.949-3.566-2.109-5.612-3.37
		c15.668-18.207,42.535-20.703,73.029-3.097c22.717,13.116,43.361,35.035,58.83,60.342c-0.37-0.251-0.746-0.517-1.117-0.731
		c-8.588-4.958-14.681,0.103-14.707,9.324c-0.023,8.269,4.097,17.64,8.494,28.448c3.295,8.584,7.148,19.413,7.113,31.811
		c-0.024,8.578-2.273,18.097-6.725,28.563l-8.8,28.378L236.2,233.349c5.28,2.715,9.981,4.804,9.981,4.804
		c4.622,2.026,4.199-5.867-0.25-8.435c-0.087-0.05-0.174-0.098-0.264-0.143c0,0-14.15-6.884-23.269-12.149
		c-8.571-4.949-22.961-14.542-22.961-14.542c-0.087-0.055-0.171-0.108-0.255-0.156c-4.478-2.586-4.944,5.115-0.337,8.097
		c0,0,4.45,3.193,9.149,6.24l13.472,50.634l-19.279,54.762l-31.47-126.917c5.28,2.715,9.992,4.811,9.992,4.811
		c4.616,2.023,4.199-5.867-0.245-8.433c-0.087-0.05-0.174-0.097-0.264-0.143C180.201,191.778,166.051,184.894,156.926,179.626
		 M224.377,155.464c-56.682-32.725-102.788-6.456-102.972,58.68c-0.185,65.137,45.622,144.472,102.303,177.196
		c56.687,32.728,102.793,6.46,102.977-58.677C326.871,267.526,281.063,188.192,224.377,155.464"/>
</g>
<g>
</g>
<g>
</g>
<g>
</g>
<g>
</g>
<g>
</g>
<g>
</g>
<g>
</g>
<g>
</g>
<g>
</g>
<g>
</g>
<g>
</g>
<g>
</g>
<g>
</g>
<g>
</g>
<g>
</g>
</svg>
